<?xml version="1.0" encoding="UTF-8" standalone="no"?>
<!DOCTYPE svg PUBLIC "-//W3C//DTD SVG 1.1//EN"
 "http://www.w3.org/Graphics/SVG/1.1/DTD/svg11.dtd">
<!-- Generated by graphviz version 2.26.3 (20100126.1600)
 -->
<!-- Title: ta_manager.conf.Configuration.Configuration.searchAttr Pages: 1 -->
<svg width="352pt" height="146pt"
 viewBox="0.00 0.00 352.00 146.00" xmlns="http://www.w3.org/2000/svg" xmlns:xlink="http://www.w3.org/1999/xlink">
<g id="graph1" class="graph" transform="scale(1 1) rotate(0) translate(4 142)">
<title>ta_manager.conf.Configuration.Configuration.searchAttr</title>
<!-- Node1 -->
<g id="node1" class="node"><title>Node1</title>
<polygon fill="#bfbfbf" stroke="black" points="0.5,-52 0.5,-86 153.5,-86 153.5,-52 0.5,-52"/>
<text text-anchor="start" x="8.5" y="-73" font-family="Helvetica,sans-Serif" font-size="10.00">ta_manager.conf.Configuration.</text>
<text text-anchor="middle" x="77" y="-60" font-family="Helvetica,sans-Serif" font-size="10.00">Configuration.searchAttr</text>
</g>
<!-- Node1&#45;&gt;Node1 -->
<g id="edge2" class="edge"><title>Node1&#45;&gt;Node1</title>
<path fill="none" stroke="midnightblue" d="M43.9117,-96.3176C48.5582,-100.864 59.5876,-104 77,-104 105.574,-104 116.959,-95.5562 111.155,-86.2878"/>
<polygon fill="midnightblue" stroke="midnightblue" points="47.3831,-95.8615 42.8449,-86.2878 40.4223,-96.6019 47.3831,-95.8615"/>
</g>
<!-- Node2 -->
<g id="node4" class="node"><title>Node2</title>
<a xlink:href="classta__manager_1_1conf_1_1_configuration_1_1_configuration.html#a8ad59dfad6338f47d15d9d7fdf93a218" target="_top" xlink:title="Returns the value of the attr in the node.">
<polygon fill="none" stroke="black" points="190.5,-104 190.5,-138 343.5,-138 343.5,-104 190.5,-104"/>
<text text-anchor="start" x="198.5" y="-125" font-family="Helvetica,sans-Serif" font-size="10.00">ta_manager.conf.Configuration.</text>
<text text-anchor="middle" x="267" y="-112" font-family="Helvetica,sans-Serif" font-size="10.00">Configuration.getAttr</text>
</a>
</g>
<!-- Node1&#45;&gt;Node2 -->
<g id="edge4" class="edge"><title>Node1&#45;&gt;Node2</title>
<path fill="none" stroke="midnightblue" d="M148.961,-88.6947C167.292,-93.7115 186.841,-99.0616 204.647,-103.935"/>
<polygon fill="midnightblue" stroke="midnightblue" points="149.782,-85.2907 139.213,-86.0267 147.934,-92.0424 149.782,-85.2907"/>
</g>
<!-- Node3 -->
<g id="node6" class="node"><title>Node3</title>
<a xlink:href="classta__manager_1_1conf_1_1_configuration_1_1_configuration.html#afde320074d120d5af10fab7b393229aa" target="_top" xlink:title="Returns the list of the node.">
<polygon fill="none" stroke="black" points="190.5,-52 190.5,-86 343.5,-86 343.5,-52 190.5,-52"/>
<text text-anchor="start" x="198.5" y="-73" font-family="Helvetica,sans-Serif" font-size="10.00">ta_manager.conf.Configuration.</text>
<text text-anchor="middle" x="267" y="-60" font-family="Helvetica,sans-Serif" font-size="10.00">Configuration.getList</text>
</a>
</g>
<!-- Node1&#45;&gt;Node3 -->
<g id="edge6" class="edge"><title>Node1&#45;&gt;Node3</title>
<path fill="none" stroke="midnightblue" d="M163.978,-69C172.758,-69 181.629,-69 190.29,-69"/>
<polygon fill="midnightblue" stroke="midnightblue" points="163.733,-65.5001 153.733,-69 163.733,-72.5001 163.733,-65.5001"/>
</g>
<!-- Node4 -->
<g id="node8" class="node"><title>Node4</title>
<a xlink:href="classta__manager_1_1conf_1_1_configuration_1_1_configuration.html#af33d75fbcae61c61a9cfc647dedfc4ef" target="_top" xlink:title="Returns the content of the node.">
<polygon fill="none" stroke="black" points="190.5,-0 190.5,-34 343.5,-34 343.5,-0 190.5,-0"/>
<text text-anchor="start" x="198.5" y="-21" font-family="Helvetica,sans-Serif" font-size="10.00">ta_manager.conf.Configuration.</text>
<text text-anchor="middle" x="267" y="-8" font-family="Helvetica,sans-Serif" font-size="10.00">Configuration.getContent</text>
</a>
</g>
<!-- Node1&#45;&gt;Node4 -->
<g id="edge8" class="edge"><title>Node1&#45;&gt;Node4</title>
<path fill="none" stroke="midnightblue" d="M148.961,-49.3053C167.292,-44.2885 186.841,-38.9384 204.647,-34.065"/>
<polygon fill="midnightblue" stroke="midnightblue" points="147.934,-45.9576 139.213,-51.9733 149.782,-52.7093 147.934,-45.9576"/>
</g>
</g>
</svg>
