<?xml version="1.0" encoding="UTF-8" standalone="no"?>
<!DOCTYPE svg PUBLIC "-//W3C//DTD SVG 1.1//EN"
 "http://www.w3.org/Graphics/SVG/1.1/DTD/svg11.dtd">
<!-- Generated by graphviz version 2.26.3 (20100126.1600)
 -->
<!-- Title: ta_manager.conf.Configuration.Configuration.getAttr Pages: 1 -->
<svg width="352pt" height="60pt"
 viewBox="0.00 0.00 352.00 60.00" xmlns="http://www.w3.org/2000/svg" xmlns:xlink="http://www.w3.org/1999/xlink">
<g id="graph1" class="graph" transform="scale(1 1) rotate(0) translate(4 56)">
<title>ta_manager.conf.Configuration.Configuration.getAttr</title>
<!-- Node1 -->
<g id="node1" class="node"><title>Node1</title>
<polygon fill="#bfbfbf" stroke="black" points="0.5,-0 0.5,-34 153.5,-34 153.5,-0 0.5,-0"/>
<text text-anchor="start" x="8.5" y="-21" font-family="Helvetica,sans-Serif" font-size="10.00">ta_manager.conf.Configuration.</text>
<text text-anchor="middle" x="77" y="-8" font-family="Helvetica,sans-Serif" font-size="10.00">Configuration.getAttr</text>
</g>
<!-- Node2 -->
<g id="node3" class="node"><title>Node2</title>
<a xlink:href="classta__manager_1_1conf_1_1_configuration_1_1_configuration.html#a61ed8556e1dfaebca44afafffa29b9c1" target="_top" xlink:title="Recursive private function to search an attr for a given node.">
<polygon fill="none" stroke="black" points="190.5,-0 190.5,-34 343.5,-34 343.5,-0 190.5,-0"/>
<text text-anchor="start" x="198.5" y="-21" font-family="Helvetica,sans-Serif" font-size="10.00">ta_manager.conf.Configuration.</text>
<text text-anchor="middle" x="267" y="-8" font-family="Helvetica,sans-Serif" font-size="10.00">Configuration.searchAttr</text>
</a>
</g>
<!-- Node1&#45;&gt;Node2 -->
<g id="edge2" class="edge"><title>Node1&#45;&gt;Node2</title>
<path fill="none" stroke="midnightblue" d="M153.733,-17C162.394,-17 171.265,-17 180.044,-17"/>
<polygon fill="midnightblue" stroke="midnightblue" points="180.29,-20.5001 190.29,-17 180.29,-13.5001 180.29,-20.5001"/>
</g>
<!-- Node2&#45;&gt;Node2 -->
<g id="edge4" class="edge"><title>Node2&#45;&gt;Node2</title>
<path fill="none" stroke="midnightblue" d="M232.845,-34.2878C227.041,-43.5562 238.426,-52 267,-52 284.412,-52 295.442,-48.8645 300.088,-44.3176"/>
<polygon fill="midnightblue" stroke="midnightblue" points="303.578,-44.6019 301.155,-34.2878 296.617,-43.8615 303.578,-44.6019"/>
</g>
</g>
</svg>
