<?xml version="1.0" encoding="UTF-8" standalone="no"?>
<!DOCTYPE svg PUBLIC "-//W3C//DTD SVG 1.1//EN"
 "http://www.w3.org/Graphics/SVG/1.1/DTD/svg11.dtd">
<!-- Generated by graphviz version 2.26.3 (20100126.1600)
 -->
<!-- Title: ta_manager.conf.Configuration.Configuration Pages: 1 -->
<svg width="160pt" height="276pt"
 viewBox="0.00 0.00 160.00 276.00" xmlns="http://www.w3.org/2000/svg" xmlns:xlink="http://www.w3.org/1999/xlink">
<g id="graph1" class="graph" transform="scale(1 1) rotate(0) translate(4 272)">
<title>ta_manager.conf.Configuration.Configuration</title>
<!-- Node1 -->
<g id="node1" class="node"><title>Node1</title>
<polygon fill="#bfbfbf" stroke="black" points="-0.5,-0.5 -0.5,-167.5 152.5,-167.5 152.5,-0.5 -0.5,-0.5"/>
<text text-anchor="start" x="7.5" y="-154.5" font-family="Helvetica,sans-Serif" font-size="10.00">ta_manager.conf.Configuration.</text>
<text text-anchor="middle" x="76" y="-141.5" font-family="Helvetica,sans-Serif" font-size="10.00">Configuration</text>
<polyline fill="none" stroke="black" points="-0.5,-133.5 152.5,-133.5 "/>
<text text-anchor="start" x="7.5" y="-120.5" font-family="Helvetica,sans-Serif" font-size="10.00">+ xmldict</text>
<text text-anchor="start" x="7.5" y="-107.5" font-family="Helvetica,sans-Serif" font-size="10.00">+ pdict</text>
<polyline fill="none" stroke="black" points="-0.5,-99.5 152.5,-99.5 "/>
<text text-anchor="start" x="7.5" y="-86.5" font-family="Helvetica,sans-Serif" font-size="10.00">+ __init__()</text>
<text text-anchor="start" x="7.5" y="-73.5" font-family="Helvetica,sans-Serif" font-size="10.00">+ __str__()</text>
<text text-anchor="start" x="7.5" y="-60.5" font-family="Helvetica,sans-Serif" font-size="10.00">+ printLogging()</text>
<text text-anchor="start" x="7.5" y="-47.5" font-family="Helvetica,sans-Serif" font-size="10.00">+ searchAttr()</text>
<text text-anchor="start" x="7.5" y="-34.5" font-family="Helvetica,sans-Serif" font-size="10.00">+ getAttr()</text>
<text text-anchor="start" x="7.5" y="-21.5" font-family="Helvetica,sans-Serif" font-size="10.00">+ getList()</text>
<text text-anchor="start" x="7.5" y="-8.5" font-family="Helvetica,sans-Serif" font-size="10.00">+ getContent()</text>
</g>
<!-- Node2 -->
<g id="node2" class="node"><title>Node2</title>
<a xlink:href="classobject.html" target="_top" xlink:title="{object\n||}">
<polygon fill="none" stroke="black" points="54.5,-204.5 54.5,-267.5 97.5,-267.5 97.5,-204.5 54.5,-204.5"/>
<text text-anchor="middle" x="76" y="-254.5" font-family="Helvetica,sans-Serif" font-size="10.00">object</text>
<polyline fill="none" stroke="black" points="54.5,-246.5 97.5,-246.5 "/>
<text text-anchor="middle" x="76" y="-233.5" font-family="Helvetica,sans-Serif" font-size="10.00"> </text>
<polyline fill="none" stroke="black" points="54.5,-225.5 97.5,-225.5 "/>
<text text-anchor="middle" x="76" y="-212.5" font-family="Helvetica,sans-Serif" font-size="10.00"> </text>
</a>
</g>
<!-- Node2&#45;&gt;Node1 -->
<g id="edge2" class="edge"><title>Node2&#45;&gt;Node1</title>
<path fill="none" stroke="midnightblue" d="M76,-194.081C76,-185.826 76,-176.894 76,-167.812"/>
<polygon fill="none" stroke="midnightblue" points="72.5001,-194.136 76,-204.136 79.5001,-194.136 72.5001,-194.136"/>
</g>
</g>
</svg>
